{
	"asset":{
		"generator":"Khronos glTF Blender I/O v4.0.44",
		"version":"2.0"
	},
	"extensionsUsed":[
		"KHR_materials_specular",
		"KHR_materials_ior"
	],
	"scene":1,
	"scenes":[
		{
			"name":"Glass"
		},
		{
			"name":"Scene",
			"nodes":[
				0
			]
		}
	],
	"nodes":[
		{
			"mesh":0,
			"name":"20231212 319 SA ambulance.084",
			"rotation":[
				0,
				0.7071068286895752,
				-0.7071068286895752,
				1.1520234011186403e-07
			],
			"scale":[
				0.0009999871253967285,
				0.0009999871253967285,
				0.0009999871253967285
			],
			"translation":[
				0.138691246509552,
				-0.0329115092754364,
				3.039811611175537
			]
		}
	],
	"materials":[
		{
			"doubleSided":true,
			"extensions":{
				"KHR_materials_specular":{
					"specularFactor":0.0706000030040741
				},
				"KHR_materials_ior":{
					"ior":1.4500000476837158
				}
			},
			"name":"Plastic (5)",
			"normalTexture":{
				"index":0,
				"scale":0
			},
			"pbrMetallicRoughness":{
				"baseColorFactor":[
					0.0799955353140831,
					0.0799955353140831,
					0.0799955353140831,
					1
				],
				"metallicFactor":0,
				"roughnessFactor":0.7357472777366638
			}
		},
		{
			"doubleSided":true,
			"extensions":{
				"KHR_materials_specular":{
					"specularColorFactor":[
						2.0,
						2.0,
						2.0
					]
				},
				"KHR_materials_ior":{
					"ior":1.4500000476837158
				}
			},
			"name":"Hard Rough Plastic Red #1",
			"pbrMetallicRoughness":{
				"baseColorFactor":[
					0.9020000100135803,
					0,
					0,
					1
				],
				"metallicFactor":0
			}
		},
		{
			"doubleSided":true,
			"extensions":{
				"KHR_materials_specular":{
					"specularColorFactor":[
						2.0,
						2.0,
						2.0
					]
				},
				"KHR_materials_ior":{
					"ior":1.4500000476837158
				}
			},
			"name":"Paint Gloss Yellow",
			"pbrMetallicRoughness":{
				"baseColorFactor":[
					0.9764999747276306,
					0.7293999791145325,
					0.0471000000834465,
					1
				],
				"metallicFactor":0
			}
		},
		{
			"doubleSided":true,
			"extensions":{
				"KHR_materials_specular":{
					"specularFactor":0.07840000092983246
				},
				"KHR_materials_ior":{
					"ior":1.4500000476837158
				}
			},
			"name":"black Metal (1)",
			"pbrMetallicRoughness":{
				"baseColorFactor":[
					0.008465401828289032,
					0.008465401828289032,
					0.008465401828289032,
					1
				],
				"metallicFactor":0,
				"roughnessFactor":0.6499999761581421
			}
		},
		{
			"doubleSided":true,
			"extensions":{
				"KHR_materials_specular":{
					"specularFactor":0
				},
				"KHR_materials_ior":{
					"ior":1.4500000476837158
				}
			},
			"name":"Hard Rough Plastic Black [imported]",
			"normalTexture":{
				"index":1,
				"scale":0
			},
			"pbrMetallicRoughness":{
				"baseColorFactor":[
					0.020421307533979416,
					0.020421307533979416,
					0.020421307533979416,
					1
				],
				"metallicFactor":0,
				"roughnessFactor":0.49502474069595337
			}
		},
		{
			"doubleSided":true,
			"extensions":{
				"KHR_materials_specular":{
					"specularFactor":0.45500001311302185
				},
				"KHR_materials_ior":{
					"ior":1.4500000476837158
				}
			},
			"name":"Plastic (5) [imported]",
			"normalTexture":{
				"index":2,
				"scale":0
			},
			"pbrMetallicRoughness":{
				"baseColorFactor":[
					0.00910372193902731,
					0.00910372193902731,
					0.00910372193902731,
					1
				],
				"metallicFactor":0,
				"roughnessFactor":0.5344358682632446
			}
		}
	],
	"meshes":[
		{
			"name":"20231212 319 SA ambulance.085",
			"primitives":[
				{
					"attributes":{
						"POSITION":0,
						"NORMAL":1,
						"TEXCOORD_0":2
					},
					"indices":3,
					"material":0
				},
				{
					"attributes":{
						"POSITION":4,
						"NORMAL":5,
						"TEXCOORD_0":6
					},
					"indices":7,
					"material":1
				},
				{
					"attributes":{
						"POSITION":8,
						"NORMAL":9,
						"TEXCOORD_0":10
					},
					"indices":11,
					"material":2
				},
				{
					"attributes":{
						"POSITION":12,
						"NORMAL":13,
						"TEXCOORD_0":14
					},
					"indices":15,
					"material":3
				},
				{
					"attributes":{
						"POSITION":16,
						"NORMAL":17,
						"TEXCOORD_0":18
					},
					"indices":19,
					"material":4
				},
				{
					"attributes":{
						"POSITION":20,
						"NORMAL":21,
						"TEXCOORD_0":22
					},
					"indices":23,
					"material":5
				},
				{
					"attributes":{
						"POSITION":24,
						"NORMAL":25,
						"TEXCOORD_0":26
					},
					"indices":27,
					"material":3
				}
			]
		}
	],
	"textures":[
		{
			"sampler":0,
			"source":0
		},
		{
			"sampler":0,
			"source":0
		},
		{
			"sampler":0,
			"source":1
		}
	],
	"images":[
		{
			"mimeType":"image/png",
			"name":"bump_grit",
			"uri":"bump_grit.png"
		},
		{
			"mimeType":"image/png",
			"name":"bump_leather",
			"uri":"bump_leather.png"
		}
	],
	"accessors":[
		{
			"bufferView":0,
			"componentType":5126,
			"count":624049,
			"max":[
				609.7634887695312,
				5365.63916015625,
				-664.2766723632812
			],
			"min":[
				-11.236505508422852,
				3294.599365234375,
				-824.2473754882812
			],
			"type":"VEC3"
		},
		{
			"bufferView":1,
			"componentType":5126,
			"count":624049,
			"type":"VEC3"
		},
		{
			"bufferView":2,
			"componentType":5126,
			"count":624049,
			"type":"VEC2"
		},
		{
			"bufferView":3,
			"componentType":5125,
			"count":1954005,
			"type":"SCALAR"
		},
		{
			"bufferView":4,
			"componentType":5126,
			"count":20484,
			"max":[
				598.1500854492188,
				5205.16796875,
				-759.0452880859375
			],
			"min":[
				13.306018829345703,
				5161.1767578125,
				-802.6085205078125
			],
			"type":"VEC3"
		},
		{
			"bufferView":5,
			"componentType":5126,
			"count":20484,
			"type":"VEC3"
		},
		{
			"bufferView":6,
			"componentType":5126,
			"count":20484,
			"type":"VEC2"
		},
		{
			"bufferView":7,
			"componentType":5123,
			"count":20484,
			"type":"SCALAR"
		},
		{
			"bufferView":8,
			"componentType":5126,
			"count":394332,
			"max":[
				599.842041015625,
				5440.345703125,
				-727.9105834960938
			],
			"min":[
				10.207718849182129,
				3492.138671875,
				-1065.7684326171875
			],
			"type":"VEC3"
		},
		{
			"bufferView":9,
			"componentType":5126,
			"count":394332,
			"type":"VEC3"
		},
		{
			"bufferView":10,
			"componentType":5126,
			"count":394332,
			"type":"VEC2"
		},
		{
			"bufferView":11,
			"componentType":5125,
			"count":394332,
			"type":"SCALAR"
		},
		{
			"bufferView":12,
			"componentType":5126,
			"count":262224,
			"max":[
				589.7430419921875,
				5165.4384765625,
				-670.0780639648438
			],
			"min":[
				20.30601692199707,
				3890.128662109375,
				-824.2885131835938
			],
			"type":"VEC3"
		},
		{
			"bufferView":13,
			"componentType":5126,
			"count":262224,
			"type":"VEC3"
		},
		{
			"bufferView":14,
			"componentType":5126,
			"count":262224,
			"type":"VEC2"
		},
		{
			"bufferView":15,
			"componentType":5125,
			"count":262224,
			"type":"SCALAR"
		},
		{
			"bufferView":16,
			"componentType":5126,
			"count":852513,
			"max":[
				624.7896118164062,
				5510.78515625,
				-670.8865356445312
			],
			"min":[
				-19.99357795715332,
				3439.798583984375,
				-1084.7374267578125
			],
			"type":"VEC3"
		},
		{
			"bufferView":17,
			"componentType":5126,
			"count":852513,
			"type":"VEC3"
		},
		{
			"bufferView":18,
			"componentType":5126,
			"count":852513,
			"type":"VEC2"
		},
		{
			"bufferView":19,
			"componentType":5125,
			"count":852513,
			"type":"SCALAR"
		},
		{
			"bufferView":20,
			"componentType":5126,
			"count":185664,
			"max":[
				588.4280395507812,
				5510.736328125,
				-747.8692016601562
			],
			"min":[
				14.963218688964844,
				3513.268798828125,
				-1173.6441650390625
			],
			"type":"VEC3"
		},
		{
			"bufferView":21,
			"componentType":5126,
			"count":185664,
			"type":"VEC3"
		},
		{
			"bufferView":22,
			"componentType":5126,
			"count":185664,
			"type":"VEC2"
		},
		{
			"bufferView":23,
			"componentType":5125,
			"count":185664,
			"type":"SCALAR"
		},
		{
			"bufferView":24,
			"componentType":5126,
			"count":23256,
			"max":[
				338.47344970703125,
				5615.638671875,
				-655.6682739257812
			],
			"min":[
				260.053466796875,
				3284.598876953125,
				-722.92822265625
			],
			"type":"VEC3"
		},
		{
			"bufferView":25,
			"componentType":5126,
			"count":23256,
			"type":"VEC3"
		},
		{
			"bufferView":26,
			"componentType":5126,
			"count":23256,
			"type":"VEC2"
		},
		{
			"bufferView":27,
			"componentType":5123,
			"count":76512,
			"type":"SCALAR"
		}
	],
	"bufferViews":[
		{
			"buffer":0,
			"byteLength":7488588,
			"byteOffset":0,
			"target":34962
		},
		{
			"buffer":0,
			"byteLength":7488588,
			"byteOffset":7488588,
			"target":34962
		},
		{
			"buffer":0,
			"byteLength":4992392,
			"byteOffset":14977176,
			"target":34962
		},
		{
			"buffer":0,
			"byteLength":7816020,
			"byteOffset":19969568,
			"target":34963
		},
		{
			"buffer":0,
			"byteLength":245808,
			"byteOffset":27785588,
			"target":34962
		},
		{
			"buffer":0,
			"byteLength":245808,
			"byteOffset":28031396,
			"target":34962
		},
		{
			"buffer":0,
			"byteLength":163872,
			"byteOffset":28277204,
			"target":34962
		},
		{
			"buffer":0,
			"byteLength":40968,
			"byteOffset":28441076,
			"target":34963
		},
		{
			"buffer":0,
			"byteLength":4731984,
			"byteOffset":28482044,
			"target":34962
		},
		{
			"buffer":0,
			"byteLength":4731984,
			"byteOffset":33214028,
			"target":34962
		},
		{
			"buffer":0,
			"byteLength":3154656,
			"byteOffset":37946012,
			"target":34962
		},
		{
			"buffer":0,
			"byteLength":1577328,
			"byteOffset":41100668,
			"target":34963
		},
		{
			"buffer":0,
			"byteLength":3146688,
			"byteOffset":42677996,
			"target":34962
		},
		{
			"buffer":0,
			"byteLength":3146688,
			"byteOffset":45824684,
			"target":34962
		},
		{
			"buffer":0,
			"byteLength":2097792,
			"byteOffset":48971372,
			"target":34962
		},
		{
			"buffer":0,
			"byteLength":1048896,
			"byteOffset":51069164,
			"target":34963
		},
		{
			"buffer":0,
			"byteLength":10230156,
			"byteOffset":52118060,
			"target":34962
		},
		{
			"buffer":0,
			"byteLength":10230156,
			"byteOffset":62348216,
			"target":34962
		},
		{
			"buffer":0,
			"byteLength":6820104,
			"byteOffset":72578372,
			"target":34962
		},
		{
			"buffer":0,
			"byteLength":3410052,
			"byteOffset":79398476,
			"target":34963
		},
		{
			"buffer":0,
			"byteLength":2227968,
			"byteOffset":82808528,
			"target":34962
		},
		{
			"buffer":0,
			"byteLength":2227968,
			"byteOffset":85036496,
			"target":34962
		},
		{
			"buffer":0,
			"byteLength":1485312,
			"byteOffset":87264464,
			"target":34962
		},
		{
			"buffer":0,
			"byteLength":742656,
			"byteOffset":88749776,
			"target":34963
		},
		{
			"buffer":0,
			"byteLength":279072,
			"byteOffset":89492432,
			"target":34962
		},
		{
			"buffer":0,
			"byteLength":279072,
			"byteOffset":89771504,
			"target":34962
		},
		{
			"buffer":0,
			"byteLength":186048,
			"byteOffset":90050576,
			"target":34962
		},
		{
			"buffer":0,
			"byteLength":153024,
			"byteOffset":90236624,
			"target":34963
		}
	],
	"samplers":[
		{
			"magFilter":9729,
			"minFilter":9987
		}
	],
	"buffers":[
		{
			"byteLength":90389648,
			"uri":"ambo_3.5.bin"
		}
	]
}
